# Tiled2Unity generated file. Do not modify by hand.
# Wavefront file for 'Objects_mesh_0008.obj'

# Vertices (Count = 8)
v -1088 -1216 0
v -1104 -1216 0
v -1104 -1200 0
v -1088 -1200 0
v -1104 -1216 0
v -1120 -1216 0
v -1120 -1200 0
v -1104 -1200 0

# Texture cooridinates (Count = 6)
vt 0 0.7714286
vt 0.2285714 0.7714286
vt 0.2285714 1
vt 0 1
vt 0.4571429 0.7714286
vt 0.4571429 1

# Normal
vn 0 0 -1

# Mesh description
g Objects_mesh_0008

# Faces
f 1/1/1 2/2/1 3/3/1 4/4/1
f 5/2/1 6/5/1 7/6/1 8/3/1

