# Tiled2Unity generated file. Do not modify by hand.
# Wavefront file for 'Objects_mesh_0002.obj'

# Vertices (Count = 24)
v -1008 -1024 0
v -1024 -1024 0
v -1024 -1008 0
v -1008 -1008 0
v -1024 -1024 0
v -1040 -1024 0
v -1040 -1008 0
v -1024 -1008 0
v -1040 -1024 0
v -1056 -1024 0
v -1056 -1008 0
v -1040 -1008 0
v -1008 -1040 0
v -1024 -1040 0
v -1024 -1024 0
v -1008 -1024 0
v -1024 -1040 0
v -1040 -1040 0
v -1040 -1024 0
v -1024 -1024 0
v -1040 -1040 0
v -1056 -1040 0
v -1056 -1024 0
v -1040 -1024 0

# Texture cooridinates (Count = 12)
vt 0.2285714 0.3142857
vt 0.4571429 0.3142857
vt 0.4571429 0.5428572
vt 0.2285714 0.5428572
vt 0.6857143 0.3142857
vt 0.6857143 0.5428572
vt 0.9142857 0.3142857
vt 0.9142857 0.5428572
vt 0.2285714 0.08571428
vt 0.4571429 0.08571428
vt 0.6857143 0.08571428
vt 0.9142857 0.08571428

# Normal
vn 0 0 -1

# Mesh description
g Objects_mesh_0002

# Faces
f 1/1/1 2/2/1 3/3/1 4/4/1
f 5/2/1 6/5/1 7/6/1 8/3/1
f 9/5/1 10/7/1 11/8/1 12/6/1
f 13/9/1 14/10/1 15/2/1 16/1/1
f 17/10/1 18/11/1 19/5/1 20/2/1
f 21/11/1 22/12/1 23/7/1 24/5/1

