# Tiled2Unity generated file. Do not modify by hand.
# Wavefront file for 'ForestScene_mesh_0003.obj'

# Vertices (Count = 372)
v -592 -784 0
v -608 -784 0
v -608 -768 0
v -592 -768 0
v -608 -784 0
v -624 -784 0
v -624 -768 0
v -608 -768 0
v -592 -800 0
v -608 -800 0
v -608 -784 0
v -592 -784 0
v -608 -800 0
v -624 -800 0
v -624 -784 0
v -608 -784 0
v -800 -800 0
v -816 -800 0
v -816 -784 0
v -800 -784 0
v -816 -800 0
v -832 -800 0
v -832 -784 0
v -816 -784 0
v -832 -800 0
v -848 -800 0
v -848 -784 0
v -832 -784 0
v -848 -800 0
v -864 -800 0
v -864 -784 0
v -848 -784 0
v -864 -800 0
v -880 -800 0
v -880 -784 0
v -864 -784 0
v -880 -800 0
v -896 -800 0
v -896 -784 0
v -880 -784 0
v -896 -800 0
v -912 -800 0
v -912 -784 0
v -896 -784 0
v -912 -800 0
v -928 -800 0
v -928 -784 0
v -912 -784 0
v -800 -816 0
v -816 -816 0
v -816 -800 0
v -800 -800 0
v -816 -816 0
v -832 -816 0
v -832 -800 0
v -816 -800 0
v -832 -816 0
v -848 -816 0
v -848 -800 0
v -832 -800 0
v -848 -816 0
v -864 -816 0
v -864 -800 0
v -848 -800 0
v -864 -816 0
v -880 -816 0
v -880 -800 0
v -864 -800 0
v -880 -816 0
v -896 -816 0
v -896 -800 0
v -880 -800 0
v -896 -816 0
v -912 -816 0
v -912 -800 0
v -896 -800 0
v -912 -816 0
v -928 -816 0
v -928 -800 0
v -912 -800 0
v -800 -832 0
v -816 -832 0
v -816 -816 0
v -800 -816 0
v -816 -832 0
v -832 -832 0
v -832 -816 0
v -816 -816 0
v -832 -832 0
v -848 -832 0
v -848 -816 0
v -832 -816 0
v -848 -832 0
v -864 -832 0
v -864 -816 0
v -848 -816 0
v -864 -832 0
v -880 -832 0
v -880 -816 0
v -864 -816 0
v -880 -832 0
v -896 -832 0
v -896 -816 0
v -880 -816 0
v -896 -832 0
v -912 -832 0
v -912 -816 0
v -896 -816 0
v -912 -832 0
v -928 -832 0
v -928 -816 0
v -912 -816 0
v -800 -848 0
v -816 -848 0
v -816 -832 0
v -800 -832 0
v -816 -848 0
v -832 -848 0
v -832 -832 0
v -816 -832 0
v -832 -848 0
v -848 -848 0
v -848 -832 0
v -832 -832 0
v -848 -848 0
v -864 -848 0
v -864 -832 0
v -848 -832 0
v -864 -848 0
v -880 -848 0
v -880 -832 0
v -864 -832 0
v -880 -848 0
v -896 -848 0
v -896 -832 0
v -880 -832 0
v -896 -848 0
v -912 -848 0
v -912 -832 0
v -896 -832 0
v -912 -848 0
v -928 -848 0
v -928 -832 0
v -912 -832 0
v -656 -880 0
v -672 -880 0
v -672 -864 0
v -656 -864 0
v -672 -880 0
v -688 -880 0
v -688 -864 0
v -672 -864 0
v -688 -880 0
v -704 -880 0
v -704 -864 0
v -688 -864 0
v -656 -896 0
v -672 -896 0
v -672 -880 0
v -656 -880 0
v -672 -896 0
v -688 -896 0
v -688 -880 0
v -672 -880 0
v -688 -896 0
v -704 -896 0
v -704 -880 0
v -688 -880 0
v -656 -912 0
v -672 -912 0
v -672 -896 0
v -656 -896 0
v -672 -912 0
v -688 -912 0
v -688 -896 0
v -672 -896 0
v -688 -912 0
v -704 -912 0
v -704 -896 0
v -688 -896 0
v -784 -912 0
v -800 -912 0
v -800 -896 0
v -784 -896 0
v -800 -912 0
v -816 -912 0
v -816 -896 0
v -800 -896 0
v -816 -912 0
v -832 -912 0
v -832 -896 0
v -816 -896 0
v -832 -912 0
v -848 -912 0
v -848 -896 0
v -832 -896 0
v -784 -928 0
v -800 -928 0
v -800 -912 0
v -784 -912 0
v -800 -928 0
v -816 -928 0
v -816 -912 0
v -800 -912 0
v -816 -928 0
v -832 -928 0
v -832 -912 0
v -816 -912 0
v -832 -928 0
v -848 -928 0
v -848 -912 0
v -832 -912 0
v -784 -944 0
v -800 -944 0
v -800 -928 0
v -784 -928 0
v -800 -944 0
v -816 -944 0
v -816 -928 0
v -800 -928 0
v -816 -944 0
v -832 -944 0
v -832 -928 0
v -816 -928 0
v -832 -944 0
v -848 -944 0
v -848 -928 0
v -832 -928 0
v -784 -960 0
v -800 -960 0
v -800 -944 0
v -784 -944 0
v -800 -960 0
v -816 -960 0
v -816 -944 0
v -800 -944 0
v -816 -960 0
v -832 -960 0
v -832 -944 0
v -816 -944 0
v -832 -960 0
v -848 -960 0
v -848 -944 0
v -832 -944 0
v -1168 -992 0
v -1184 -992 0
v -1184 -976 0
v -1168 -976 0
v -1168 -1008 0
v -1184 -1008 0
v -1184 -992 0
v -1168 -992 0
v -1168 -1024 0
v -1184 -1024 0
v -1184 -1008 0
v -1168 -1008 0
v -1184 -1024 0
v -1200 -1024 0
v -1200 -1008 0
v -1184 -1008 0
v -1184 -1040 0
v -1200 -1040 0
v -1200 -1024 0
v -1184 -1024 0
v -800 -1056 0
v -816 -1056 0
v -816 -1040 0
v -800 -1040 0
v -816 -1056 0
v -832 -1056 0
v -832 -1040 0
v -816 -1040 0
v -832 -1056 0
v -848 -1056 0
v -848 -1040 0
v -832 -1040 0
v -880 -1056 0
v -896 -1056 0
v -896 -1040 0
v -880 -1040 0
v -944 -1056 0
v -960 -1056 0
v -960 -1040 0
v -944 -1040 0
v -1360 -1056 0
v -1376 -1056 0
v -1376 -1040 0
v -1360 -1040 0
v -880 -1072 0
v -896 -1072 0
v -896 -1056 0
v -880 -1056 0
v -944 -1072 0
v -960 -1072 0
v -960 -1056 0
v -944 -1056 0
v -1360 -1072 0
v -1376 -1072 0
v -1376 -1056 0
v -1360 -1056 0
v -880 -1088 0
v -896 -1088 0
v -896 -1072 0
v -880 -1072 0
v -944 -1088 0
v -960 -1088 0
v -960 -1072 0
v -944 -1072 0
v -1360 -1088 0
v -1376 -1088 0
v -1376 -1072 0
v -1360 -1072 0
v -880 -1104 0
v -896 -1104 0
v -896 -1088 0
v -880 -1088 0
v -944 -1104 0
v -960 -1104 0
v -960 -1088 0
v -944 -1088 0
v -1360 -1104 0
v -1376 -1104 0
v -1376 -1088 0
v -1360 -1088 0
v -1360 -1120 0
v -1376 -1120 0
v -1376 -1104 0
v -1360 -1104 0
v -1360 -1136 0
v -1376 -1136 0
v -1376 -1120 0
v -1360 -1120 0
v -1360 -1152 0
v -1376 -1152 0
v -1376 -1136 0
v -1360 -1136 0
v -1360 -1168 0
v -1376 -1168 0
v -1376 -1152 0
v -1360 -1152 0
v -1360 -1184 0
v -1376 -1184 0
v -1376 -1168 0
v -1360 -1168 0
v -1360 -1200 0
v -1376 -1200 0
v -1376 -1184 0
v -1360 -1184 0
v -1360 -1216 0
v -1376 -1216 0
v -1376 -1200 0
v -1360 -1200 0
v -1360 -1232 0
v -1376 -1232 0
v -1376 -1216 0
v -1360 -1216 0
v -1360 -1248 0
v -1376 -1248 0
v -1376 -1232 0
v -1360 -1232 0
v -1360 -1264 0
v -1376 -1264 0
v -1376 -1248 0
v -1360 -1248 0
v -1360 -1280 0
v -1376 -1280 0
v -1376 -1264 0
v -1360 -1264 0
v -1360 -1296 0
v -1376 -1296 0
v -1376 -1280 0
v -1360 -1280 0

# Texture cooridinates (Count = 34)
vt 0.6470588 0.375
vt 0.7058824 0.375
vt 0.7058824 0.5
vt 0.6470588 0.5
vt 0.7647059 0.375
vt 0.8235294 0.375
vt 0.8235294 0.5
vt 0.7647059 0.5
vt 0.6470588 0.125
vt 0.7058824 0.125
vt 0.7058824 0.25
vt 0.6470588 0.25
vt 0.7647059 0.125
vt 0.8235294 0.125
vt 0.8235294 0.25
vt 0.7647059 0.25
vt 0.5882353 0.125
vt 0.5882353 0.25
vt 0.5294118 0.375
vt 0.5882353 0.375
vt 0.5882353 0.5
vt 0.5294118 0.5
vt 0.5294118 0.125
vt 0.5294118 0.25
vt 0.6470588 0.75
vt 0.7058824 0.75
vt 0.7058824 0.875
vt 0.6470588 0.875
vt 0.7647059 0.625
vt 0.7058824 0.625
vt 0.6470588 0.625
vt 0.4705882 0.25
vt 0.4705882 0.375
vt 0.4705882 0.125

# Normal
vn 0 0 -1

# Mesh description
g ForestScene_mesh_0003

# Faces
f 1/1/1 2/2/1 3/3/1 4/4/1
f 5/5/1 6/6/1 7/7/1 8/8/1
f 9/9/1 10/10/1 11/11/1 12/12/1
f 13/13/1 14/14/1 15/15/1 16/16/1
f 17/1/1 18/2/1 19/3/1 20/4/1
f 21/2/1 22/5/1 23/8/1 24/3/1
f 25/2/1 26/5/1 27/8/1 28/3/1
f 29/2/1 30/5/1 31/8/1 32/3/1
f 33/2/1 34/5/1 35/8/1 36/3/1
f 37/2/1 38/5/1 39/8/1 40/3/1
f 41/2/1 42/5/1 43/8/1 44/3/1
f 45/5/1 46/6/1 47/7/1 48/8/1
f 49/12/1 50/11/1 51/2/1 52/1/1
f 53/17/1 54/9/1 55/12/1 56/18/1
f 57/11/1 58/16/1 59/5/1 60/2/1
f 61/19/1 62/20/1 63/21/1 64/22/1
f 65/20/1 66/1/1 67/4/1 68/21/1
f 69/17/1 70/9/1 71/12/1 72/18/1
f 73/11/1 74/16/1 75/5/1 76/2/1
f 77/16/1 78/15/1 79/6/1 80/5/1
f 81/12/1 82/11/1 83/2/1 84/1/1
f 85/11/1 86/16/1 87/5/1 88/2/1
f 89/23/1 90/17/1 91/18/1 92/24/1
f 93/24/1 94/18/1 95/20/1 96/19/1
f 97/18/1 98/12/1 99/1/1 100/20/1
f 101/11/1 102/16/1 103/5/1 104/2/1
f 105/17/1 106/9/1 107/12/1 108/18/1
f 109/16/1 110/15/1 111/6/1 112/5/1
f 113/9/1 114/10/1 115/11/1 116/12/1
f 117/10/1 118/13/1 119/16/1 120/11/1
f 121/10/1 122/13/1 123/16/1 124/11/1
f 125/10/1 126/13/1 127/16/1 128/11/1
f 129/10/1 130/13/1 131/16/1 132/11/1
f 133/10/1 134/13/1 135/16/1 136/11/1
f 137/10/1 138/13/1 139/16/1 140/11/1
f 141/13/1 142/14/1 143/15/1 144/16/1
f 145/1/1 146/2/1 147/3/1 148/4/1
f 149/2/1 150/5/1 151/8/1 152/3/1
f 153/5/1 154/6/1 155/7/1 156/8/1
f 157/12/1 158/11/1 159/2/1 160/1/1
f 161/17/1 162/9/1 163/12/1 164/18/1
f 165/16/1 166/15/1 167/6/1 168/5/1
f 169/9/1 170/10/1 171/11/1 172/12/1
f 173/10/1 174/13/1 175/16/1 176/11/1
f 177/13/1 178/14/1 179/15/1 180/16/1
f 181/1/1 182/2/1 183/3/1 184/4/1
f 185/2/1 186/5/1 187/8/1 188/3/1
f 189/2/1 190/5/1 191/8/1 192/3/1
f 193/5/1 194/6/1 195/7/1 196/8/1
f 197/12/1 198/11/1 199/2/1 200/1/1
f 201/19/1 202/20/1 203/21/1 204/22/1
f 205/20/1 206/1/1 207/4/1 208/21/1
f 209/16/1 210/15/1 211/6/1 212/5/1
f 213/12/1 214/11/1 215/2/1 216/1/1
f 217/24/1 218/18/1 219/20/1 220/19/1
f 221/18/1 222/12/1 223/1/1 224/20/1
f 225/16/1 226/15/1 227/6/1 228/5/1
f 229/9/1 230/10/1 231/11/1 232/12/1
f 233/10/1 234/13/1 235/16/1 236/11/1
f 237/10/1 238/13/1 239/16/1 240/11/1
f 241/13/1 242/14/1 243/15/1 244/16/1
f 245/25/1 246/26/1 247/27/1 248/28/1
f 249/25/1 250/26/1 251/27/1 252/28/1
f 253/25/1 254/26/1 255/27/1 256/28/1
f 257/3/1 258/8/1 259/29/1 260/30/1
f 261/3/1 262/8/1 263/29/1 264/30/1
f 265/31/1 266/30/1 267/26/1 268/25/1
f 269/31/1 270/30/1 271/26/1 272/25/1
f 273/31/1 274/30/1 275/26/1 276/25/1
f 277/32/1 278/24/1 279/19/1 280/33/1
f 281/32/1 282/24/1 283/19/1 284/33/1
f 285/32/1 286/24/1 287/19/1 288/33/1
f 289/34/1 290/23/1 291/24/1 292/32/1
f 293/34/1 294/23/1 295/24/1 296/32/1
f 297/25/1 298/26/1 299/27/1 300/28/1
f 301/34/1 302/23/1 303/24/1 304/32/1
f 305/34/1 306/23/1 307/24/1 308/32/1
f 309/25/1 310/26/1 311/27/1 312/28/1
f 313/34/1 314/23/1 315/24/1 316/32/1
f 317/34/1 318/23/1 319/24/1 320/32/1
f 321/25/1 322/26/1 323/27/1 324/28/1
f 325/25/1 326/26/1 327/27/1 328/28/1
f 329/25/1 330/26/1 331/27/1 332/28/1
f 333/25/1 334/26/1 335/27/1 336/28/1
f 337/25/1 338/26/1 339/27/1 340/28/1
f 341/25/1 342/26/1 343/27/1 344/28/1
f 345/25/1 346/26/1 347/27/1 348/28/1
f 349/25/1 350/26/1 351/27/1 352/28/1
f 353/25/1 354/26/1 355/27/1 356/28/1
f 357/25/1 358/26/1 359/27/1 360/28/1
f 361/25/1 362/26/1 363/27/1 364/28/1
f 365/25/1 366/26/1 367/27/1 368/28/1
f 369/25/1 370/26/1 371/27/1 372/28/1

