# Tiled2Unity generated file. Do not modify by hand.
# Wavefront file for 'ForestScene_mesh_0005.obj'

# Vertices (Count = 300)
v -1088 -848 0
v -1104 -848 0
v -1104 -832 0
v -1088 -832 0
v -1104 -848 0
v -1120 -848 0
v -1120 -832 0
v -1104 -832 0
v -1120 -848 0
v -1136 -848 0
v -1136 -832 0
v -1120 -832 0
v -1136 -848 0
v -1152 -848 0
v -1152 -832 0
v -1136 -832 0
v -1152 -848 0
v -1168 -848 0
v -1168 -832 0
v -1152 -832 0
v -1168 -848 0
v -1184 -848 0
v -1184 -832 0
v -1168 -832 0
v -1184 -848 0
v -1200 -848 0
v -1200 -832 0
v -1184 -832 0
v -672 -864 0
v -688 -864 0
v -688 -848 0
v -672 -848 0
v -944 -896 0
v -960 -896 0
v -960 -880 0
v -944 -880 0
v -960 -896 0
v -976 -896 0
v -976 -880 0
v -960 -880 0
v -1024 -896 0
v -1040 -896 0
v -1040 -880 0
v -1024 -880 0
v -1040 -896 0
v -1056 -896 0
v -1056 -880 0
v -1040 -880 0
v -1104 -896 0
v -1120 -896 0
v -1120 -880 0
v -1104 -880 0
v -1120 -896 0
v -1136 -896 0
v -1136 -880 0
v -1120 -880 0
v -1136 -896 0
v -1152 -896 0
v -1152 -880 0
v -1136 -880 0
v -1152 -896 0
v -1168 -896 0
v -1168 -880 0
v -1152 -880 0
v -1168 -896 0
v -1184 -896 0
v -1184 -880 0
v -1168 -880 0
v -1184 -896 0
v -1200 -896 0
v -1200 -880 0
v -1184 -880 0
v -1200 -896 0
v -1216 -896 0
v -1216 -880 0
v -1200 -880 0
v -1312 -896 0
v -1328 -896 0
v -1328 -880 0
v -1312 -880 0
v -1328 -896 0
v -1344 -896 0
v -1344 -880 0
v -1328 -880 0
v -1344 -896 0
v -1360 -896 0
v -1360 -880 0
v -1344 -880 0
v -528 -912 0
v -544 -912 0
v -544 -896 0
v -528 -896 0
v -560 -944 0
v -576 -944 0
v -576 -928 0
v -560 -928 0
v -576 -944 0
v -592 -944 0
v -592 -928 0
v -576 -928 0
v -1008 -944 0
v -1024 -944 0
v -1024 -928 0
v -1008 -928 0
v -1024 -944 0
v -1040 -944 0
v -1040 -928 0
v -1024 -928 0
v -1040 -944 0
v -1056 -944 0
v -1056 -928 0
v -1040 -928 0
v -624 -960 0
v -640 -960 0
v -640 -944 0
v -624 -944 0
v -928 -960 0
v -944 -960 0
v -944 -944 0
v -928 -944 0
v -944 -960 0
v -960 -960 0
v -960 -944 0
v -944 -944 0
v -960 -960 0
v -976 -960 0
v -976 -944 0
v -960 -944 0
v -976 -960 0
v -992 -960 0
v -992 -944 0
v -976 -944 0
v -992 -960 0
v -1008 -960 0
v -1008 -944 0
v -992 -944 0
v -1008 -960 0
v -1024 -960 0
v -1024 -944 0
v -1008 -944 0
v -1024 -960 0
v -1040 -960 0
v -1040 -944 0
v -1024 -944 0
v -1040 -960 0
v -1056 -960 0
v -1056 -944 0
v -1040 -944 0
v -1264 -960 0
v -1280 -960 0
v -1280 -944 0
v -1264 -944 0
v -1280 -960 0
v -1296 -960 0
v -1296 -944 0
v -1280 -944 0
v -1296 -960 0
v -1312 -960 0
v -1312 -944 0
v -1296 -944 0
v -1312 -960 0
v -1328 -960 0
v -1328 -944 0
v -1312 -944 0
v -1328 -960 0
v -1344 -960 0
v -1344 -944 0
v -1328 -944 0
v -1344 -960 0
v -1360 -960 0
v -1360 -944 0
v -1344 -944 0
v -1360 -960 0
v -1376 -960 0
v -1376 -944 0
v -1360 -944 0
v -448 -992 0
v -464 -992 0
v -464 -976 0
v -448 -976 0
v -464 -992 0
v -480 -992 0
v -480 -976 0
v -464 -976 0
v -480 -992 0
v -496 -992 0
v -496 -976 0
v -480 -976 0
v -512 -992 0
v -528 -992 0
v -528 -976 0
v -512 -976 0
v -544 -992 0
v -560 -992 0
v -560 -976 0
v -544 -976 0
v -560 -992 0
v -576 -992 0
v -576 -976 0
v -560 -976 0
v -576 -992 0
v -592 -992 0
v -592 -976 0
v -576 -976 0
v -640 -992 0
v -656 -992 0
v -656 -976 0
v -640 -976 0
v -656 -992 0
v -672 -992 0
v -672 -976 0
v -656 -976 0
v -672 -992 0
v -688 -992 0
v -688 -976 0
v -672 -976 0
v -688 -992 0
v -704 -992 0
v -704 -976 0
v -688 -976 0
v -704 -992 0
v -720 -992 0
v -720 -976 0
v -704 -976 0
v -560 -1008 0
v -576 -1008 0
v -576 -992 0
v -560 -992 0
v -576 -1008 0
v -592 -1008 0
v -592 -992 0
v -576 -992 0
v -784 -1040 0
v -800 -1040 0
v -800 -1024 0
v -784 -1024 0
v -848 -1040 0
v -864 -1040 0
v -864 -1024 0
v -848 -1024 0
v -864 -1040 0
v -880 -1040 0
v -880 -1024 0
v -864 -1024 0
v -880 -1040 0
v -896 -1040 0
v -896 -1024 0
v -880 -1024 0
v -944 -1040 0
v -960 -1040 0
v -960 -1024 0
v -944 -1024 0
v -960 -1040 0
v -976 -1040 0
v -976 -1024 0
v -960 -1024 0
v -976 -1040 0
v -992 -1040 0
v -992 -1024 0
v -976 -1024 0
v -992 -1040 0
v -1008 -1040 0
v -1008 -1024 0
v -992 -1024 0
v -1200 -1040 0
v -1216 -1040 0
v -1216 -1024 0
v -1200 -1024 0
v -1264 -1040 0
v -1280 -1040 0
v -1280 -1024 0
v -1264 -1024 0
v -1280 -1040 0
v -1296 -1040 0
v -1296 -1024 0
v -1280 -1024 0
v -1296 -1040 0
v -1312 -1040 0
v -1312 -1024 0
v -1296 -1024 0
v -1312 -1040 0
v -1328 -1040 0
v -1328 -1024 0
v -1312 -1024 0
v -1328 -1040 0
v -1344 -1040 0
v -1344 -1024 0
v -1328 -1024 0
v -1344 -1040 0
v -1360 -1040 0
v -1360 -1024 0
v -1344 -1024 0
v -1360 -1040 0
v -1376 -1040 0
v -1376 -1024 0
v -1360 -1024 0
v -1360 -1056 0
v -1376 -1056 0
v -1376 -1040 0
v -1360 -1040 0

# Texture cooridinates (Count = 26)
vt 0.6470588 0.5
vt 0.7058824 0.5
vt 0.7058824 0.625
vt 0.6470588 0.625
vt 0.9411765 0.25
vt 1 0.25
vt 1 0.375
vt 0.9411765 0.375
vt 0.9411765 0.125
vt 1 0.125
vt 0.8235294 0.125
vt 0.8823529 0.125
vt 0.8823529 0.25
vt 0.8235294 0.25
vt 0.9411765 0.75
vt 0.8823529 0.75
vt 0.8823529 0.875
vt 0.9411765 0.875
vt 0.8823529 0.375
vt 0.8235294 0.375
vt 0.9411765 1
vt 0.8823529 1
vt 0.5294118 0.5
vt 0.5882353 0.5
vt 0.5882353 0.625
vt 0.5294118 0.625

# Normal
vn 0 0 -1

# Mesh description
g ForestScene_mesh_0005

# Faces
f 1/1/1 2/2/1 3/3/1 4/4/1
f 5/1/1 6/2/1 7/3/1 8/4/1
f 9/1/1 10/2/1 11/3/1 12/4/1
f 13/1/1 14/2/1 15/3/1 16/4/1
f 17/1/1 18/2/1 19/3/1 20/4/1
f 21/1/1 22/2/1 23/3/1 24/4/1
f 25/1/1 26/2/1 27/3/1 28/4/1
f 29/1/1 30/2/1 31/3/1 32/4/1
f 33/1/1 34/2/1 35/3/1 36/4/1
f 37/1/1 38/2/1 39/3/1 40/4/1
f 41/1/1 42/2/1 43/3/1 44/4/1
f 45/1/1 46/2/1 47/3/1 48/4/1
f 49/3/1 50/4/1 51/1/1 52/2/1
f 53/3/1 54/4/1 55/1/1 56/2/1
f 57/3/1 58/4/1 59/1/1 60/2/1
f 61/3/1 62/4/1 63/1/1 64/2/1
f 65/3/1 66/4/1 67/1/1 68/2/1
f 69/3/1 70/4/1 71/1/1 72/2/1
f 73/3/1 74/4/1 75/1/1 76/2/1
f 77/5/1 78/6/1 79/7/1 80/8/1
f 81/9/1 82/10/1 83/6/1 84/5/1
f 85/6/1 86/5/1 87/8/1 88/7/1
f 89/1/1 90/2/1 91/3/1 92/4/1
f 93/2/1 94/1/1 95/4/1 96/3/1
f 97/1/1 98/2/1 99/3/1 100/4/1
f 101/3/1 102/4/1 103/1/1 104/2/1
f 105/3/1 106/4/1 107/1/1 108/2/1
f 109/3/1 110/4/1 111/1/1 112/2/1
f 113/1/1 114/2/1 115/3/1 116/4/1
f 117/3/1 118/4/1 119/1/1 120/2/1
f 121/3/1 122/4/1 123/1/1 124/2/1
f 125/3/1 126/4/1 127/1/1 128/2/1
f 129/3/1 130/4/1 131/1/1 132/2/1
f 133/3/1 134/4/1 135/1/1 136/2/1
f 137/3/1 138/4/1 139/1/1 140/2/1
f 141/3/1 142/4/1 143/1/1 144/2/1
f 145/3/1 146/4/1 147/1/1 148/2/1
f 149/3/1 150/4/1 151/1/1 152/2/1
f 153/3/1 154/4/1 155/1/1 156/2/1
f 157/3/1 158/4/1 159/1/1 160/2/1
f 161/3/1 162/4/1 163/1/1 164/2/1
f 165/3/1 166/4/1 167/1/1 168/2/1
f 169/3/1 170/4/1 171/1/1 172/2/1
f 173/3/1 174/4/1 175/1/1 176/2/1
f 177/11/1 178/12/1 179/13/1 180/14/1
f 181/15/1 182/16/1 183/17/1 184/18/1
f 185/11/1 186/12/1 187/13/1 188/14/1
f 189/9/1 190/10/1 191/6/1 192/5/1
f 193/1/1 194/2/1 195/3/1 196/4/1
f 197/14/1 198/13/1 199/19/1 200/20/1
f 201/11/1 202/12/1 203/13/1 204/14/1
f 205/2/1 206/1/1 207/4/1 208/3/1
f 209/1/1 210/2/1 211/3/1 212/4/1
f 213/14/1 214/13/1 215/19/1 216/20/1
f 217/1/1 218/2/1 219/3/1 220/4/1
f 221/1/1 222/2/1 223/3/1 224/4/1
f 225/14/1 226/13/1 227/19/1 228/20/1
f 229/14/1 230/13/1 231/19/1 232/20/1
f 233/9/1 234/10/1 235/6/1 236/5/1
f 237/1/1 238/2/1 239/3/1 240/4/1
f 241/1/1 242/2/1 243/3/1 244/4/1
f 245/17/1 246/18/1 247/21/1 248/22/1
f 249/1/1 250/2/1 251/3/1 252/4/1
f 253/1/1 254/2/1 255/3/1 256/4/1
f 257/1/1 258/2/1 259/3/1 260/4/1
f 261/1/1 262/2/1 263/3/1 264/4/1
f 265/9/1 266/10/1 267/6/1 268/5/1
f 269/1/1 270/2/1 271/3/1 272/4/1
f 273/12/1 274/9/1 275/5/1 276/13/1
f 277/1/1 278/2/1 279/3/1 280/4/1
f 281/14/1 282/13/1 283/19/1 284/20/1
f 285/1/1 286/2/1 287/3/1 288/4/1
f 289/1/1 290/2/1 291/3/1 292/4/1
f 293/1/1 294/2/1 295/3/1 296/4/1
f 297/23/1 298/24/1 299/25/1 300/26/1

