# Tiled2Unity generated file. Do not modify by hand.
# Wavefront file for 'bestTiles_mesh_0003.obj'

# Vertices (Count = 56)
v -1264 -1088 0
v -1280 -1088 0
v -1280 -1072 0
v -1264 -1072 0
v -1280 -1088 0
v -1296 -1088 0
v -1296 -1072 0
v -1280 -1072 0
v -1264 -1104 0
v -1280 -1104 0
v -1280 -1088 0
v -1264 -1088 0
v -1280 -1104 0
v -1296 -1104 0
v -1296 -1088 0
v -1280 -1088 0
v -1264 -1120 0
v -1280 -1120 0
v -1280 -1104 0
v -1264 -1104 0
v -1280 -1120 0
v -1296 -1120 0
v -1296 -1104 0
v -1280 -1104 0
v -1264 -1136 0
v -1280 -1136 0
v -1280 -1120 0
v -1264 -1120 0
v -1280 -1136 0
v -1296 -1136 0
v -1296 -1120 0
v -1280 -1120 0
v -1264 -1152 0
v -1280 -1152 0
v -1280 -1136 0
v -1264 -1136 0
v -1280 -1152 0
v -1296 -1152 0
v -1296 -1136 0
v -1280 -1136 0
v -1264 -1168 0
v -1280 -1168 0
v -1280 -1152 0
v -1264 -1152 0
v -1280 -1168 0
v -1296 -1168 0
v -1296 -1152 0
v -1280 -1152 0
v -1264 -1184 0
v -1280 -1184 0
v -1280 -1168 0
v -1264 -1168 0
v -1280 -1184 0
v -1296 -1184 0
v -1296 -1168 0
v -1280 -1168 0

# Texture cooridinates (Count = 21)
vt 0.4666667 0.8636364
vt 0.5 0.8636364
vt 0.5 0.9090909
vt 0.4666667 0.9090909
vt 0.5333334 0.8636364
vt 0.5333334 0.9090909
vt 0.4666667 0.8181818
vt 0.5 0.8181818
vt 0.5333334 0.8181818
vt 0.4666667 0.7727273
vt 0.5 0.7727273
vt 0.5333334 0.7727273
vt 0.4666667 0.7272727
vt 0.5 0.7272727
vt 0.5333334 0.7272727
vt 0.4666667 0.6818182
vt 0.5 0.6818182
vt 0.5333334 0.6818182
vt 0.4666667 0.6363636
vt 0.5 0.6363636
vt 0.5333334 0.6363636

# Normal
vn 0 0 -1

# Mesh description
g bestTiles_mesh_0003

# Faces
f 1/1/1 2/2/1 3/3/1 4/4/1
f 5/2/1 6/5/1 7/6/1 8/3/1
f 9/7/1 10/8/1 11/2/1 12/1/1
f 13/8/1 14/9/1 15/5/1 16/2/1
f 17/10/1 18/11/1 19/8/1 20/7/1
f 21/11/1 22/12/1 23/9/1 24/8/1
f 25/13/1 26/14/1 27/11/1 28/10/1
f 29/14/1 30/15/1 31/12/1 32/11/1
f 33/16/1 34/17/1 35/14/1 36/13/1
f 37/17/1 38/18/1 39/15/1 40/14/1
f 41/19/1 42/20/1 43/17/1 44/16/1
f 45/20/1 46/21/1 47/18/1 48/17/1
f 49/19/1 50/20/1 51/17/1 52/16/1
f 53/20/1 54/21/1 55/18/1 56/17/1

