# Tiled2Unity generated file. Do not modify by hand.
# Wavefront file for 'TilesEndWorld_mesh_0004.obj'

# Vertices (Count = 28)
v -512 -1840 0
v -528 -1840 0
v -528 -1824 0
v -512 -1824 0
v -528 -1840 0
v -544 -1840 0
v -544 -1824 0
v -528 -1824 0
v -544 -1904 0
v -560 -1904 0
v -560 -1888 0
v -544 -1888 0
v -448 -1936 0
v -464 -1936 0
v -464 -1920 0
v -448 -1920 0
v -448 -2112 0
v -464 -2112 0
v -464 -2096 0
v -448 -2096 0
v -560 -2128 0
v -576 -2128 0
v -576 -2112 0
v -560 -2112 0
v -576 -2128 0
v -592 -2128 0
v -592 -2112 0
v -576 -2112 0

# Texture cooridinates (Count = 13)
vt 0.6666667 0.8636364
vt 0.7 0.8636364
vt 0.7 0.9090909
vt 0.6666667 0.9090909
vt 0.7333333 0.8636364
vt 0.7666667 0.8636364
vt 0.7666667 0.9090909
vt 0.7333333 0.9090909
vt 0.7666667 0.8181818
vt 0.8 0.8181818
vt 0.8 0.8636364
vt 0.8333333 0.8181818
vt 0.8333333 0.8636364

# Normal
vn 0 0 -1

# Mesh description
g TilesEndWorld_mesh_0004

# Faces
f 1/1/1 2/2/1 3/3/1 4/4/1
f 5/1/1 6/2/1 7/3/1 8/4/1
f 9/3/1 10/4/1 11/1/1 12/2/1
f 13/4/1 14/1/1 15/2/1 16/3/1
f 17/5/1 18/6/1 19/7/1 20/8/1
f 21/9/1 22/10/1 23/11/1 24/6/1
f 25/10/1 26/12/1 27/13/1 28/11/1

