# Tiled2Unity generated file. Do not modify by hand.
# Wavefront file for 'TilesEndWorld_mesh_0008.obj'

# Vertices (Count = 888)
v -320 -1920 0
v -336 -1920 0
v -336 -1904 0
v -320 -1904 0
v -336 -1920 0
v -352 -1920 0
v -352 -1904 0
v -336 -1904 0
v -352 -1920 0
v -368 -1920 0
v -368 -1904 0
v -352 -1904 0
v -368 -1920 0
v -384 -1920 0
v -384 -1904 0
v -368 -1904 0
v -384 -1920 0
v -400 -1920 0
v -400 -1904 0
v -384 -1904 0
v -400 -1920 0
v -416 -1920 0
v -416 -1904 0
v -400 -1904 0
v -416 -1920 0
v -432 -1920 0
v -432 -1904 0
v -416 -1904 0
v -432 -1920 0
v -448 -1920 0
v -448 -1904 0
v -432 -1904 0
v -448 -1920 0
v -464 -1920 0
v -464 -1904 0
v -448 -1904 0
v -464 -1920 0
v -480 -1920 0
v -480 -1904 0
v -464 -1904 0
v -320 -1936 0
v -336 -1936 0
v -336 -1920 0
v -320 -1920 0
v -336 -1936 0
v -352 -1936 0
v -352 -1920 0
v -336 -1920 0
v -352 -1936 0
v -368 -1936 0
v -368 -1920 0
v -352 -1920 0
v -368 -1936 0
v -384 -1936 0
v -384 -1920 0
v -368 -1920 0
v -384 -1936 0
v -400 -1936 0
v -400 -1920 0
v -384 -1920 0
v -400 -1936 0
v -416 -1936 0
v -416 -1920 0
v -400 -1920 0
v -416 -1936 0
v -432 -1936 0
v -432 -1920 0
v -416 -1920 0
v -432 -1936 0
v -448 -1936 0
v -448 -1920 0
v -432 -1920 0
v -448 -1936 0
v -464 -1936 0
v -464 -1920 0
v -448 -1920 0
v -464 -1936 0
v -480 -1936 0
v -480 -1920 0
v -464 -1920 0
v -320 -1952 0
v -336 -1952 0
v -336 -1936 0
v -320 -1936 0
v -336 -1952 0
v -352 -1952 0
v -352 -1936 0
v -336 -1936 0
v -352 -1952 0
v -368 -1952 0
v -368 -1936 0
v -352 -1936 0
v -368 -1952 0
v -384 -1952 0
v -384 -1936 0
v -368 -1936 0
v -384 -1952 0
v -400 -1952 0
v -400 -1936 0
v -384 -1936 0
v -400 -1952 0
v -416 -1952 0
v -416 -1936 0
v -400 -1936 0
v -416 -1952 0
v -432 -1952 0
v -432 -1936 0
v -416 -1936 0
v -432 -1952 0
v -448 -1952 0
v -448 -1936 0
v -432 -1936 0
v -448 -1952 0
v -464 -1952 0
v -464 -1936 0
v -448 -1936 0
v -464 -1952 0
v -480 -1952 0
v -480 -1936 0
v -464 -1936 0
v -320 -1968 0
v -336 -1968 0
v -336 -1952 0
v -320 -1952 0
v -336 -1968 0
v -352 -1968 0
v -352 -1952 0
v -336 -1952 0
v -352 -1968 0
v -368 -1968 0
v -368 -1952 0
v -352 -1952 0
v -368 -1968 0
v -384 -1968 0
v -384 -1952 0
v -368 -1952 0
v -384 -1968 0
v -400 -1968 0
v -400 -1952 0
v -384 -1952 0
v -400 -1968 0
v -416 -1968 0
v -416 -1952 0
v -400 -1952 0
v -416 -1968 0
v -432 -1968 0
v -432 -1952 0
v -416 -1952 0
v -432 -1968 0
v -448 -1968 0
v -448 -1952 0
v -432 -1952 0
v -448 -1968 0
v -464 -1968 0
v -464 -1952 0
v -448 -1952 0
v -464 -1968 0
v -480 -1968 0
v -480 -1952 0
v -464 -1952 0
v -320 -1984 0
v -336 -1984 0
v -336 -1968 0
v -320 -1968 0
v -336 -1984 0
v -352 -1984 0
v -352 -1968 0
v -336 -1968 0
v -352 -1984 0
v -368 -1984 0
v -368 -1968 0
v -352 -1968 0
v -368 -1984 0
v -384 -1984 0
v -384 -1968 0
v -368 -1968 0
v -384 -1984 0
v -400 -1984 0
v -400 -1968 0
v -384 -1968 0
v -400 -1984 0
v -416 -1984 0
v -416 -1968 0
v -400 -1968 0
v -416 -1984 0
v -432 -1984 0
v -432 -1968 0
v -416 -1968 0
v -432 -1984 0
v -448 -1984 0
v -448 -1968 0
v -432 -1968 0
v -448 -1984 0
v -464 -1984 0
v -464 -1968 0
v -448 -1968 0
v -464 -1984 0
v -480 -1984 0
v -480 -1968 0
v -464 -1968 0
v -320 -2000 0
v -336 -2000 0
v -336 -1984 0
v -320 -1984 0
v -336 -2000 0
v -352 -2000 0
v -352 -1984 0
v -336 -1984 0
v -352 -2000 0
v -368 -2000 0
v -368 -1984 0
v -352 -1984 0
v -368 -2000 0
v -384 -2000 0
v -384 -1984 0
v -368 -1984 0
v -384 -2000 0
v -400 -2000 0
v -400 -1984 0
v -384 -1984 0
v -400 -2000 0
v -416 -2000 0
v -416 -1984 0
v -400 -1984 0
v -416 -2000 0
v -432 -2000 0
v -432 -1984 0
v -416 -1984 0
v -432 -2000 0
v -448 -2000 0
v -448 -1984 0
v -432 -1984 0
v -448 -2000 0
v -464 -2000 0
v -464 -1984 0
v -448 -1984 0
v -464 -2000 0
v -480 -2000 0
v -480 -1984 0
v -464 -1984 0
v -320 -2016 0
v -336 -2016 0
v -336 -2000 0
v -320 -2000 0
v -336 -2016 0
v -352 -2016 0
v -352 -2000 0
v -336 -2000 0
v -352 -2016 0
v -368 -2016 0
v -368 -2000 0
v -352 -2000 0
v -368 -2016 0
v -384 -2016 0
v -384 -2000 0
v -368 -2000 0
v -384 -2016 0
v -400 -2016 0
v -400 -2000 0
v -384 -2000 0
v -400 -2016 0
v -416 -2016 0
v -416 -2000 0
v -400 -2000 0
v -416 -2016 0
v -432 -2016 0
v -432 -2000 0
v -416 -2000 0
v -432 -2016 0
v -448 -2016 0
v -448 -2000 0
v -432 -2000 0
v -448 -2016 0
v -464 -2016 0
v -464 -2000 0
v -448 -2000 0
v -464 -2016 0
v -480 -2016 0
v -480 -2000 0
v -464 -2000 0
v -480 -2016 0
v -496 -2016 0
v -496 -2000 0
v -480 -2000 0
v -320 -2032 0
v -336 -2032 0
v -336 -2016 0
v -320 -2016 0
v -336 -2032 0
v -352 -2032 0
v -352 -2016 0
v -336 -2016 0
v -352 -2032 0
v -368 -2032 0
v -368 -2016 0
v -352 -2016 0
v -368 -2032 0
v -384 -2032 0
v -384 -2016 0
v -368 -2016 0
v -384 -2032 0
v -400 -2032 0
v -400 -2016 0
v -384 -2016 0
v -400 -2032 0
v -416 -2032 0
v -416 -2016 0
v -400 -2016 0
v -416 -2032 0
v -432 -2032 0
v -432 -2016 0
v -416 -2016 0
v -432 -2032 0
v -448 -2032 0
v -448 -2016 0
v -432 -2016 0
v -448 -2032 0
v -464 -2032 0
v -464 -2016 0
v -448 -2016 0
v -464 -2032 0
v -480 -2032 0
v -480 -2016 0
v -464 -2016 0
v -480 -2032 0
v -496 -2032 0
v -496 -2016 0
v -480 -2016 0
v -496 -2032 0
v -512 -2032 0
v -512 -2016 0
v -496 -2016 0
v -320 -2048 0
v -336 -2048 0
v -336 -2032 0
v -320 -2032 0
v -336 -2048 0
v -352 -2048 0
v -352 -2032 0
v -336 -2032 0
v -352 -2048 0
v -368 -2048 0
v -368 -2032 0
v -352 -2032 0
v -368 -2048 0
v -384 -2048 0
v -384 -2032 0
v -368 -2032 0
v -384 -2048 0
v -400 -2048 0
v -400 -2032 0
v -384 -2032 0
v -400 -2048 0
v -416 -2048 0
v -416 -2032 0
v -400 -2032 0
v -416 -2048 0
v -432 -2048 0
v -432 -2032 0
v -416 -2032 0
v -432 -2048 0
v -448 -2048 0
v -448 -2032 0
v -432 -2032 0
v -448 -2048 0
v -464 -2048 0
v -464 -2032 0
v -448 -2032 0
v -464 -2048 0
v -480 -2048 0
v -480 -2032 0
v -464 -2032 0
v -480 -2048 0
v -496 -2048 0
v -496 -2032 0
v -480 -2032 0
v -496 -2048 0
v -512 -2048 0
v -512 -2032 0
v -496 -2032 0
v -208 -2064 0
v -224 -2064 0
v -224 -2048 0
v -208 -2048 0
v -224 -2064 0
v -240 -2064 0
v -240 -2048 0
v -224 -2048 0
v -240 -2064 0
v -256 -2064 0
v -256 -2048 0
v -240 -2048 0
v -256 -2064 0
v -272 -2064 0
v -272 -2048 0
v -256 -2048 0
v -272 -2064 0
v -288 -2064 0
v -288 -2048 0
v -272 -2048 0
v -288 -2064 0
v -304 -2064 0
v -304 -2048 0
v -288 -2048 0
v -304 -2064 0
v -320 -2064 0
v -320 -2048 0
v -304 -2048 0
v -320 -2064 0
v -336 -2064 0
v -336 -2048 0
v -320 -2048 0
v -336 -2064 0
v -352 -2064 0
v -352 -2048 0
v -336 -2048 0
v -352 -2064 0
v -368 -2064 0
v -368 -2048 0
v -352 -2048 0
v -368 -2064 0
v -384 -2064 0
v -384 -2048 0
v -368 -2048 0
v -384 -2064 0
v -400 -2064 0
v -400 -2048 0
v -384 -2048 0
v -400 -2064 0
v -416 -2064 0
v -416 -2048 0
v -400 -2048 0
v -416 -2064 0
v -432 -2064 0
v -432 -2048 0
v -416 -2048 0
v -432 -2064 0
v -448 -2064 0
v -448 -2048 0
v -432 -2048 0
v -448 -2064 0
v -464 -2064 0
v -464 -2048 0
v -448 -2048 0
v -464 -2064 0
v -480 -2064 0
v -480 -2048 0
v -464 -2048 0
v -480 -2064 0
v -496 -2064 0
v -496 -2048 0
v -480 -2048 0
v -496 -2064 0
v -512 -2064 0
v -512 -2048 0
v -496 -2048 0
v -512 -2064 0
v -528 -2064 0
v -528 -2048 0
v -512 -2048 0
v -528 -2064 0
v -544 -2064 0
v -544 -2048 0
v -528 -2048 0
v -192 -2080 0
v -208 -2080 0
v -208 -2064 0
v -192 -2064 0
v -208 -2080 0
v -224 -2080 0
v -224 -2064 0
v -208 -2064 0
v -224 -2080 0
v -240 -2080 0
v -240 -2064 0
v -224 -2064 0
v -240 -2080 0
v -256 -2080 0
v -256 -2064 0
v -240 -2064 0
v -256 -2080 0
v -272 -2080 0
v -272 -2064 0
v -256 -2064 0
v -272 -2080 0
v -288 -2080 0
v -288 -2064 0
v -272 -2064 0
v -288 -2080 0
v -304 -2080 0
v -304 -2064 0
v -288 -2064 0
v -304 -2080 0
v -320 -2080 0
v -320 -2064 0
v -304 -2064 0
v -320 -2080 0
v -336 -2080 0
v -336 -2064 0
v -320 -2064 0
v -336 -2080 0
v -352 -2080 0
v -352 -2064 0
v -336 -2064 0
v -352 -2080 0
v -368 -2080 0
v -368 -2064 0
v -352 -2064 0
v -368 -2080 0
v -384 -2080 0
v -384 -2064 0
v -368 -2064 0
v -384 -2080 0
v -400 -2080 0
v -400 -2064 0
v -384 -2064 0
v -400 -2080 0
v -416 -2080 0
v -416 -2064 0
v -400 -2064 0
v -416 -2080 0
v -432 -2080 0
v -432 -2064 0
v -416 -2064 0
v -432 -2080 0
v -448 -2080 0
v -448 -2064 0
v -432 -2064 0
v -448 -2080 0
v -464 -2080 0
v -464 -2064 0
v -448 -2064 0
v -464 -2080 0
v -480 -2080 0
v -480 -2064 0
v -464 -2064 0
v -480 -2080 0
v -496 -2080 0
v -496 -2064 0
v -480 -2064 0
v -496 -2080 0
v -512 -2080 0
v -512 -2064 0
v -496 -2064 0
v -512 -2080 0
v -528 -2080 0
v -528 -2064 0
v -512 -2064 0
v -528 -2080 0
v -544 -2080 0
v -544 -2064 0
v -528 -2064 0
v -544 -2080 0
v -560 -2080 0
v -560 -2064 0
v -544 -2064 0
v -176 -2096 0
v -192 -2096 0
v -192 -2080 0
v -176 -2080 0
v -192 -2096 0
v -208 -2096 0
v -208 -2080 0
v -192 -2080 0
v -208 -2096 0
v -224 -2096 0
v -224 -2080 0
v -208 -2080 0
v -224 -2096 0
v -240 -2096 0
v -240 -2080 0
v -224 -2080 0
v -240 -2096 0
v -256 -2096 0
v -256 -2080 0
v -240 -2080 0
v -256 -2096 0
v -272 -2096 0
v -272 -2080 0
v -256 -2080 0
v -272 -2096 0
v -288 -2096 0
v -288 -2080 0
v -272 -2080 0
v -288 -2096 0
v -304 -2096 0
v -304 -2080 0
v -288 -2080 0
v -304 -2096 0
v -320 -2096 0
v -320 -2080 0
v -304 -2080 0
v -320 -2096 0
v -336 -2096 0
v -336 -2080 0
v -320 -2080 0
v -336 -2096 0
v -352 -2096 0
v -352 -2080 0
v -336 -2080 0
v -352 -2096 0
v -368 -2096 0
v -368 -2080 0
v -352 -2080 0
v -368 -2096 0
v -384 -2096 0
v -384 -2080 0
v -368 -2080 0
v -384 -2096 0
v -400 -2096 0
v -400 -2080 0
v -384 -2080 0
v -400 -2096 0
v -416 -2096 0
v -416 -2080 0
v -400 -2080 0
v -416 -2096 0
v -432 -2096 0
v -432 -2080 0
v -416 -2080 0
v -432 -2096 0
v -448 -2096 0
v -448 -2080 0
v -432 -2080 0
v -448 -2096 0
v -464 -2096 0
v -464 -2080 0
v -448 -2080 0
v -464 -2096 0
v -480 -2096 0
v -480 -2080 0
v -464 -2080 0
v -480 -2096 0
v -496 -2096 0
v -496 -2080 0
v -480 -2080 0
v -496 -2096 0
v -512 -2096 0
v -512 -2080 0
v -496 -2080 0
v -512 -2096 0
v -528 -2096 0
v -528 -2080 0
v -512 -2080 0
v -528 -2096 0
v -544 -2096 0
v -544 -2080 0
v -528 -2080 0
v -544 -2096 0
v -560 -2096 0
v -560 -2080 0
v -544 -2080 0
v -128 -2112 0
v -144 -2112 0
v -144 -2096 0
v -128 -2096 0
v -176 -2112 0
v -192 -2112 0
v -192 -2096 0
v -176 -2096 0
v -192 -2112 0
v -208 -2112 0
v -208 -2096 0
v -192 -2096 0
v -208 -2112 0
v -224 -2112 0
v -224 -2096 0
v -208 -2096 0
v -224 -2112 0
v -240 -2112 0
v -240 -2096 0
v -224 -2096 0
v -240 -2112 0
v -256 -2112 0
v -256 -2096 0
v -240 -2096 0
v -256 -2112 0
v -272 -2112 0
v -272 -2096 0
v -256 -2096 0
v -272 -2112 0
v -288 -2112 0
v -288 -2096 0
v -272 -2096 0
v -288 -2112 0
v -304 -2112 0
v -304 -2096 0
v -288 -2096 0
v -304 -2112 0
v -320 -2112 0
v -320 -2096 0
v -304 -2096 0
v -320 -2112 0
v -336 -2112 0
v -336 -2096 0
v -320 -2096 0
v -336 -2112 0
v -352 -2112 0
v -352 -2096 0
v -336 -2096 0
v -352 -2112 0
v -368 -2112 0
v -368 -2096 0
v -352 -2096 0
v -368 -2112 0
v -384 -2112 0
v -384 -2096 0
v -368 -2096 0
v -384 -2112 0
v -400 -2112 0
v -400 -2096 0
v -384 -2096 0
v -400 -2112 0
v -416 -2112 0
v -416 -2096 0
v -400 -2096 0
v -416 -2112 0
v -432 -2112 0
v -432 -2096 0
v -416 -2096 0
v -432 -2112 0
v -448 -2112 0
v -448 -2096 0
v -432 -2096 0
v -448 -2112 0
v -464 -2112 0
v -464 -2096 0
v -448 -2096 0
v -464 -2112 0
v -480 -2112 0
v -480 -2096 0
v -464 -2096 0
v -480 -2112 0
v -496 -2112 0
v -496 -2096 0
v -480 -2096 0
v -496 -2112 0
v -512 -2112 0
v -512 -2096 0
v -496 -2096 0
v -512 -2112 0
v -528 -2112 0
v -528 -2096 0
v -512 -2096 0
v -528 -2112 0
v -544 -2112 0
v -544 -2096 0
v -528 -2096 0
v -544 -2112 0
v -560 -2112 0
v -560 -2096 0
v -544 -2096 0
v -576 -2112 0
v -592 -2112 0
v -592 -2096 0
v -576 -2096 0
v -128 -2128 0
v -144 -2128 0
v -144 -2112 0
v -128 -2112 0
v -576 -2128 0
v -592 -2128 0
v -592 -2112 0
v -576 -2112 0
v -128 -2144 0
v -144 -2144 0
v -144 -2128 0
v -128 -2128 0
v -576 -2144 0
v -592 -2144 0
v -592 -2128 0
v -576 -2128 0
v -128 -2160 0
v -144 -2160 0
v -144 -2144 0
v -128 -2144 0
v -144 -2160 0
v -160 -2160 0
v -160 -2144 0
v -144 -2144 0
v -160 -2160 0
v -176 -2160 0
v -176 -2144 0
v -160 -2144 0
v -176 -2160 0
v -192 -2160 0
v -192 -2144 0
v -176 -2144 0
v -192 -2160 0
v -208 -2160 0
v -208 -2144 0
v -192 -2144 0
v -208 -2160 0
v -224 -2160 0
v -224 -2144 0
v -208 -2144 0
v -224 -2160 0
v -240 -2160 0
v -240 -2144 0
v -224 -2144 0
v -240 -2160 0
v -256 -2160 0
v -256 -2144 0
v -240 -2144 0
v -256 -2160 0
v -272 -2160 0
v -272 -2144 0
v -256 -2144 0
v -272 -2160 0
v -288 -2160 0
v -288 -2144 0
v -272 -2144 0
v -288 -2160 0
v -304 -2160 0
v -304 -2144 0
v -288 -2144 0
v -304 -2160 0
v -320 -2160 0
v -320 -2144 0
v -304 -2144 0
v -320 -2160 0
v -336 -2160 0
v -336 -2144 0
v -320 -2144 0
v -336 -2160 0
v -352 -2160 0
v -352 -2144 0
v -336 -2144 0
v -352 -2160 0
v -368 -2160 0
v -368 -2144 0
v -352 -2144 0
v -368 -2160 0
v -384 -2160 0
v -384 -2144 0
v -368 -2144 0
v -384 -2160 0
v -400 -2160 0
v -400 -2144 0
v -384 -2144 0
v -400 -2160 0
v -416 -2160 0
v -416 -2144 0
v -400 -2144 0
v -416 -2160 0
v -432 -2160 0
v -432 -2144 0
v -416 -2144 0
v -432 -2160 0
v -448 -2160 0
v -448 -2144 0
v -432 -2144 0
v -448 -2160 0
v -464 -2160 0
v -464 -2144 0
v -448 -2144 0
v -464 -2160 0
v -480 -2160 0
v -480 -2144 0
v -464 -2144 0
v -480 -2160 0
v -496 -2160 0
v -496 -2144 0
v -480 -2144 0
v -496 -2160 0
v -512 -2160 0
v -512 -2144 0
v -496 -2144 0
v -512 -2160 0
v -528 -2160 0
v -528 -2144 0
v -512 -2144 0
v -528 -2160 0
v -544 -2160 0
v -544 -2144 0
v -528 -2144 0
v -544 -2160 0
v -560 -2160 0
v -560 -2144 0
v -544 -2144 0
v -560 -2160 0
v -576 -2160 0
v -576 -2144 0
v -560 -2144 0
v -576 -2160 0
v -592 -2160 0
v -592 -2144 0
v -576 -2144 0

# Texture cooridinates (Count = 139)
vt 0.1333333 0.4090909
vt 0.1666667 0.4090909
vt 0.1666667 0.4545454
vt 0.1333333 0.4545454
vt 0.2 0.4090909
vt 0.2 0.4545454
vt 0.2333333 0.4090909
vt 0.2333333 0.4545454
vt 0.2666667 0.4090909
vt 0.2666667 0.4545454
vt 0.3 0.4090909
vt 0.3 0.4545454
vt 0.3333333 0.4090909
vt 0.3333333 0.4545454
vt 0.3666667 0.4090909
vt 0.3666667 0.4545454
vt 0.4 0.4090909
vt 0.4 0.4545454
vt 0.1333333 0.3636364
vt 0.1666667 0.3636364
vt 0.2 0.3636364
vt 0.2333333 0.3636364
vt 0.2666667 0.3636364
vt 0.2 0.3181818
vt 0.2333333 0.3181818
vt 0.2666667 0.3181818
vt 0.3 0.3181818
vt 0.3 0.3636364
vt 0.3333333 0.3181818
vt 0.3333333 0.3636364
vt 0.3666667 0.3636364
vt 0.4 0.3636364
vt 0.1333333 0.2727273
vt 0.1666667 0.2727273
vt 0.1666667 0.3181818
vt 0.1333333 0.3181818
vt 0.2 0.2727273
vt 0.2333333 0.2727273
vt 0.2666667 0.2727273
vt 0.3 0.2727273
vt 0.3333333 0.2727273
vt 0.3666667 0.3181818
vt 0.4 0.3181818
vt 0.1333333 0.2272727
vt 0.1666667 0.2272727
vt 0.1333333 0.1818182
vt 0.1666667 0.1818182
vt 0.3666667 0.2727273
vt 0.4 0.2727273
vt 0.2666667 0.2272727
vt 0.3 0.2272727
vt 0.3333333 0.2272727
vt 0.3666667 0.2272727
vt 0.3666667 0.1818182
vt 0.4 0.1818182
vt 0.4 0.2272727
vt 0.4333333 0.1818182
vt 0.4333333 0.2272727
vt 0.2666667 0.1818182
vt 0.3 0.1818182
vt 0.3333333 0.1818182
vt 0.3666667 0.1363636
vt 0.4 0.1363636
vt 0.4333333 0.1363636
vt 0.4666667 0.1363636
vt 0.4666667 0.1818182
vt 0.6666667 0.3636364
vt 0.7 0.3636364
vt 0.7 0.4090909
vt 0.6666667 0.4090909
vt 0.7333333 0.3636364
vt 0.7333333 0.4090909
vt 0.7666667 0.3636364
vt 0.7666667 0.4090909
vt 0.8 0.3636364
vt 0.8 0.4090909
vt 0.3333333 0.1363636
vt 0.4 0.09090906
vt 0.4333333 0.09090906
vt 0.4666667 0.09090906
vt 0.2 0.1363636
vt 0.2333333 0.1363636
vt 0.2333333 0.1818182
vt 0.2 0.1818182
vt 0.2666667 0.1363636
vt 0.6666667 0.3181818
vt 0.7 0.3181818
vt 0.7333333 0.3181818
vt 0.7666667 0.3181818
vt 0.8 0.3181818
vt 0.5 0.2727273
vt 0.5333334 0.2727273
vt 0.5333334 0.3181818
vt 0.5 0.3181818
vt 0.06666667 0.1363636
vt 0.1 0.1363636
vt 0.1 0.1818182
vt 0.06666667 0.1818182
vt 0.2 0.09090906
vt 0.2333333 0.09090906
vt 0.2666667 0.09090906
vt 0.6666667 0.2727273
vt 0.7 0.2727273
vt 0.7333333 0.2727273
vt 0.7666667 0.2727273
vt 0.8 0.2727273
vt 0.3666667 0.09090906
vt 0.06666667 0.09090906
vt 0.1 0.09090906
vt 0.6666667 0.2272727
vt 0.7 0.2272727
vt 0.7333333 0.2272727
vt 0.7666667 0.2272727
vt 0.8 0.2272727
vt 0.06666667 0.9090909
vt 0.03333334 0.9090909
vt 0.03333334 0.9545454
vt 0.06666667 0.9545454
vt 0.1333333 0.09090906
vt 0.1333333 0.1363636
vt 0.6666667 0.1818182
vt 0.7 0.1818182
vt 0.7333333 0.1818182
vt 0.7666667 0.1818182
vt 0.8 0.1818182
vt 0.4666667 0.9090909
vt 0.5 0.9090909
vt 0.5 0.9545454
vt 0.4666667 0.9545454
vt 0.5333334 0.9090909
vt 0.5666667 0.9090909
vt 0.5666667 0.9545454
vt 0.5333334 0.9545454
vt 0.03333334 0.8636364
vt 0.06666667 0.8636364
vt 0.1 0.8636364
vt 0.1333333 0.8636364
vt 0.1333333 0.9090909
vt 0.1 0.9090909

# Normal
vn 0 0 -1

# Mesh description
g TilesEndWorld_mesh_0008

# Faces
f 1/1/1 2/2/1 3/3/1 4/4/1
f 5/2/1 6/5/1 7/6/1 8/3/1
f 9/2/1 10/5/1 11/6/1 12/3/1
f 13/5/1 14/7/1 15/8/1 16/6/1
f 17/7/1 18/9/1 19/10/1 20/8/1
f 21/9/1 22/11/1 23/12/1 24/10/1
f 25/11/1 26/13/1 27/14/1 28/12/1
f 29/13/1 30/15/1 31/16/1 32/14/1
f 33/15/1 34/17/1 35/18/1 36/16/1
f 37/15/1 38/17/1 39/18/1 40/16/1
f 41/19/1 42/20/1 43/2/1 44/1/1
f 45/20/1 46/21/1 47/5/1 48/2/1
f 49/21/1 50/22/1 51/7/1 52/5/1
f 53/22/1 54/23/1 55/9/1 56/7/1
f 57/22/1 58/23/1 59/9/1 60/7/1
f 61/24/1 62/25/1 63/22/1 64/21/1
f 65/25/1 66/26/1 67/23/1 68/22/1
f 69/26/1 70/27/1 71/28/1 72/23/1
f 73/27/1 74/29/1 75/30/1 76/28/1
f 77/31/1 78/32/1 79/17/1 80/15/1
f 81/33/1 82/34/1 83/35/1 84/36/1
f 85/35/1 86/24/1 87/21/1 88/20/1
f 89/24/1 90/25/1 91/22/1 92/21/1
f 93/25/1 94/26/1 95/23/1 96/22/1
f 97/25/1 98/26/1 99/23/1 100/22/1
f 101/37/1 102/38/1 103/25/1 104/24/1
f 105/38/1 106/39/1 107/26/1 108/25/1
f 109/39/1 110/40/1 111/27/1 112/26/1
f 113/40/1 114/41/1 115/29/1 116/27/1
f 117/42/1 118/43/1 119/32/1 120/31/1
f 121/44/1 122/45/1 123/34/1 124/33/1
f 125/26/1 126/27/1 127/28/1 128/23/1
f 129/27/1 130/29/1 131/30/1 132/28/1
f 133/37/1 134/38/1 135/25/1 136/24/1
f 137/38/1 138/39/1 139/26/1 140/25/1
f 141/37/1 142/38/1 143/25/1 144/24/1
f 145/38/1 146/39/1 147/26/1 148/25/1
f 149/39/1 150/40/1 151/27/1 152/26/1
f 153/40/1 154/41/1 155/29/1 156/27/1
f 157/31/1 158/32/1 159/17/1 160/15/1
f 161/46/1 162/47/1 163/45/1 164/44/1
f 165/39/1 166/40/1 167/27/1 168/26/1
f 169/40/1 170/41/1 171/29/1 172/27/1
f 173/25/1 174/26/1 175/23/1 176/22/1
f 177/26/1 178/27/1 179/28/1 180/23/1
f 181/29/1 182/27/1 183/40/1 184/41/1
f 185/24/1 186/25/1 187/22/1 188/21/1
f 189/25/1 190/26/1 191/23/1 192/22/1
f 193/26/1 194/27/1 195/28/1 196/23/1
f 197/42/1 198/43/1 199/32/1 200/31/1
f 201/33/1 202/34/1 203/35/1 204/36/1
f 205/26/1 206/27/1 207/28/1 208/23/1
f 209/27/1 210/29/1 211/30/1 212/28/1
f 213/25/1 214/26/1 215/23/1 216/22/1
f 217/31/1 218/30/1 219/29/1 220/42/1
f 221/30/1 222/28/1 223/27/1 224/29/1
f 225/37/1 226/38/1 227/25/1 228/24/1
f 229/38/1 230/39/1 231/26/1 232/25/1
f 233/39/1 234/40/1 235/27/1 236/26/1
f 237/48/1 238/49/1 239/43/1 240/42/1
f 241/44/1 242/45/1 243/34/1 244/33/1
f 245/39/1 246/40/1 247/27/1 248/26/1
f 249/26/1 250/27/1 251/28/1 252/23/1
f 253/27/1 254/29/1 255/30/1 256/28/1
f 257/50/1 258/51/1 259/40/1 260/39/1
f 261/51/1 262/52/1 263/41/1 264/40/1
f 265/25/1 266/26/1 267/23/1 268/22/1
f 269/52/1 270/53/1 271/48/1 272/41/1
f 273/29/1 274/42/1 275/31/1 276/30/1
f 277/54/1 278/55/1 279/56/1 280/53/1
f 281/55/1 282/57/1 283/58/1 284/56/1
f 285/46/1 286/47/1 287/45/1 288/44/1
f 289/26/1 290/27/1 291/28/1 292/23/1
f 293/39/1 294/40/1 295/27/1 296/26/1
f 297/40/1 298/41/1 299/29/1 300/27/1
f 301/59/1 302/60/1 303/51/1 304/50/1
f 305/60/1 306/61/1 307/52/1 308/51/1
f 309/38/1 310/39/1 311/26/1 312/25/1
f 313/61/1 314/54/1 315/53/1 316/52/1
f 317/41/1 318/48/1 319/42/1 320/29/1
f 321/62/1 322/63/1 323/55/1 324/54/1
f 325/63/1 326/64/1 327/57/1 328/55/1
f 329/64/1 330/65/1 331/66/1 332/57/1
f 333/33/1 334/34/1 335/35/1 336/36/1
f 337/39/1 338/40/1 339/27/1 340/26/1
f 341/40/1 342/41/1 343/29/1 344/27/1
f 345/67/1 346/68/1 347/69/1 348/70/1
f 349/68/1 350/71/1 351/72/1 352/69/1
f 353/71/1 354/73/1 355/74/1 356/72/1
f 357/73/1 358/75/1 359/76/1 360/74/1
f 361/77/1 362/62/1 363/54/1 364/61/1
f 365/25/1 366/26/1 367/23/1 368/22/1
f 369/39/1 370/40/1 371/27/1 372/26/1
f 373/78/1 374/79/1 375/64/1 376/63/1
f 377/79/1 378/80/1 379/65/1 380/64/1
f 381/65/1 382/64/1 383/57/1 384/66/1
f 385/7/1 386/9/1 387/10/1 388/8/1
f 389/7/1 390/9/1 391/10/1 392/8/1
f 393/7/1 394/9/1 395/10/1 396/8/1
f 397/7/1 398/9/1 399/10/1 400/8/1
f 401/63/1 402/64/1 403/57/1 404/55/1
f 405/64/1 406/65/1 407/66/1 408/57/1
f 409/44/1 410/45/1 411/34/1 412/33/1
f 413/81/1 414/82/1 415/83/1 416/84/1
f 417/82/1 418/85/1 419/59/1 420/83/1
f 421/86/1 422/87/1 423/68/1 424/67/1
f 425/87/1 426/88/1 427/71/1 428/68/1
f 429/88/1 430/89/1 431/73/1 432/71/1
f 433/89/1 434/90/1 435/75/1 436/73/1
f 437/81/1 438/82/1 439/83/1 440/84/1
f 441/82/1 442/85/1 443/59/1 444/83/1
f 445/38/1 446/39/1 447/26/1 448/25/1
f 449/24/1 450/25/1 451/22/1 452/21/1
f 453/62/1 454/63/1 455/55/1 456/54/1
f 457/64/1 458/65/1 459/66/1 460/57/1
f 461/91/1 462/92/1 463/93/1 464/94/1
f 465/95/1 466/96/1 467/97/1 468/98/1
f 469/80/1 470/79/1 471/64/1 472/65/1
f 473/79/1 474/78/1 475/63/1 476/64/1
f 477/21/1 478/22/1 479/7/1 480/5/1
f 481/22/1 482/23/1 483/9/1 484/7/1
f 485/23/1 486/28/1 487/11/1 488/9/1
f 489/78/1 490/79/1 491/64/1 492/63/1
f 493/79/1 494/80/1 495/65/1 496/64/1
f 497/46/1 498/47/1 499/45/1 500/44/1
f 501/99/1 502/100/1 503/82/1 504/81/1
f 505/100/1 506/101/1 507/85/1 508/82/1
f 509/102/1 510/103/1 511/87/1 512/86/1
f 513/103/1 514/104/1 515/88/1 516/87/1
f 517/104/1 518/105/1 519/89/1 520/88/1
f 521/105/1 522/106/1 523/90/1 524/89/1
f 525/99/1 526/100/1 527/82/1 528/81/1
f 529/100/1 530/101/1 531/85/1 532/82/1
f 533/27/1 534/29/1 535/30/1 536/28/1
f 537/29/1 538/42/1 539/31/1 540/30/1
f 541/107/1 542/78/1 543/63/1 544/62/1
f 545/79/1 546/80/1 547/65/1 548/64/1
f 549/91/1 550/92/1 551/93/1 552/94/1
f 553/91/1 554/92/1 555/93/1 556/94/1
f 557/95/1 558/96/1 559/97/1 560/98/1
f 561/108/1 562/109/1 563/96/1 564/95/1
f 565/25/1 566/26/1 567/23/1 568/22/1
f 569/26/1 570/27/1 571/28/1 572/23/1
f 573/25/1 574/26/1 575/23/1 576/22/1
f 577/26/1 578/27/1 579/28/1 580/23/1
f 581/27/1 582/29/1 583/30/1 584/28/1
f 585/24/1 586/25/1 587/22/1 588/21/1
f 589/25/1 590/26/1 591/23/1 592/22/1
f 593/26/1 594/27/1 595/28/1 596/23/1
f 597/27/1 598/29/1 599/30/1 600/28/1
f 601/29/1 602/42/1 603/31/1 604/30/1
f 605/110/1 606/111/1 607/103/1 608/102/1
f 609/111/1 610/112/1 611/104/1 612/103/1
f 613/112/1 614/113/1 615/105/1 616/104/1
f 617/113/1 618/114/1 619/106/1 620/105/1
f 621/24/1 622/25/1 623/22/1 624/21/1
f 625/25/1 626/26/1 627/23/1 628/22/1
f 629/26/1 630/27/1 631/28/1 632/23/1
f 633/27/1 634/29/1 635/30/1 636/28/1
f 637/29/1 638/42/1 639/31/1 640/30/1
f 641/62/1 642/63/1 643/55/1 644/54/1
f 645/63/1 646/64/1 647/57/1 648/55/1
f 649/64/1 650/65/1 651/66/1 652/57/1
f 653/115/1 654/116/1 655/117/1 656/118/1
f 657/108/1 658/109/1 659/96/1 660/95/1
f 661/109/1 662/119/1 663/120/1 664/96/1
f 665/38/1 666/39/1 667/26/1 668/25/1
f 669/39/1 670/40/1 671/27/1 672/26/1
f 673/38/1 674/39/1 675/26/1 676/25/1
f 677/39/1 678/40/1 679/27/1 680/26/1
f 681/40/1 682/41/1 683/29/1 684/27/1
f 685/37/1 686/38/1 687/25/1 688/24/1
f 689/38/1 690/39/1 691/26/1 692/25/1
f 693/39/1 694/40/1 695/27/1 696/26/1
f 697/40/1 698/41/1 699/29/1 700/27/1
f 701/41/1 702/48/1 703/42/1 704/29/1
f 705/121/1 706/122/1 707/111/1 708/110/1
f 709/122/1 710/123/1 711/112/1 712/111/1
f 713/123/1 714/124/1 715/113/1 716/112/1
f 717/124/1 718/125/1 719/114/1 720/113/1
f 721/37/1 722/38/1 723/25/1 724/24/1
f 725/38/1 726/39/1 727/26/1 728/25/1
f 729/39/1 730/40/1 731/27/1 732/26/1
f 733/40/1 734/41/1 735/29/1 736/27/1
f 737/41/1 738/48/1 739/42/1 740/29/1
f 741/107/1 742/78/1 743/63/1 744/62/1
f 745/78/1 746/79/1 747/64/1 748/63/1
f 749/79/1 750/80/1 751/65/1 752/64/1
f 753/116/1 754/115/1 755/118/1 756/117/1
f 757/126/1 758/127/1 759/128/1 760/129/1
f 761/130/1 762/131/1 763/132/1 764/133/1
f 765/134/1 766/135/1 767/115/1 768/116/1
f 769/136/1 770/137/1 771/138/1 772/139/1
f 773/132/1 774/133/1 775/130/1 776/131/1
f 777/133/1 778/128/1 779/127/1 780/130/1
f 781/133/1 782/128/1 783/127/1 784/130/1
f 785/133/1 786/128/1 787/127/1 788/130/1
f 789/133/1 790/128/1 791/127/1 792/130/1
f 793/133/1 794/128/1 795/127/1 796/130/1
f 797/133/1 798/128/1 799/127/1 800/130/1
f 801/133/1 802/128/1 803/127/1 804/130/1
f 805/133/1 806/128/1 807/127/1 808/130/1
f 809/133/1 810/128/1 811/127/1 812/130/1
f 813/133/1 814/128/1 815/127/1 816/130/1
f 817/133/1 818/128/1 819/127/1 820/130/1
f 821/133/1 822/128/1 823/127/1 824/130/1
f 825/133/1 826/128/1 827/127/1 828/130/1
f 829/133/1 830/128/1 831/127/1 832/130/1
f 833/133/1 834/128/1 835/127/1 836/130/1
f 837/133/1 838/128/1 839/127/1 840/130/1
f 841/133/1 842/128/1 843/127/1 844/130/1
f 845/133/1 846/128/1 847/127/1 848/130/1
f 849/133/1 850/128/1 851/127/1 852/130/1
f 853/133/1 854/128/1 855/127/1 856/130/1
f 857/133/1 858/128/1 859/127/1 860/130/1
f 861/133/1 862/128/1 863/127/1 864/130/1
f 865/133/1 866/128/1 867/127/1 868/130/1
f 869/133/1 870/128/1 871/127/1 872/130/1
f 873/133/1 874/128/1 875/127/1 876/130/1
f 877/133/1 878/128/1 879/127/1 880/130/1
f 881/133/1 882/128/1 883/127/1 884/130/1
f 885/128/1 886/129/1 887/126/1 888/127/1

