# Tiled2Unity generated file. Do not modify by hand.
# Wavefront file for 'TilesEndWorld_mesh_0009.obj'

# Vertices (Count = 88)
v -208 -1776 0
v -224 -1776 0
v -224 -1760 0
v -208 -1760 0
v -224 -1776 0
v -240 -1776 0
v -240 -1760 0
v -224 -1760 0
v -240 -1776 0
v -256 -1776 0
v -256 -1760 0
v -240 -1760 0
v -256 -1776 0
v -272 -1776 0
v -272 -1760 0
v -256 -1760 0
v -272 -1776 0
v -288 -1776 0
v -288 -1760 0
v -272 -1760 0
v -208 -1792 0
v -224 -1792 0
v -224 -1776 0
v -208 -1776 0
v -144 -2112 0
v -160 -2112 0
v -160 -2096 0
v -144 -2096 0
v -160 -2112 0
v -176 -2112 0
v -176 -2096 0
v -160 -2096 0
v -304 -2112 0
v -320 -2112 0
v -320 -2096 0
v -304 -2096 0
v -320 -2112 0
v -336 -2112 0
v -336 -2096 0
v -320 -2096 0
v -336 -2112 0
v -352 -2112 0
v -352 -2096 0
v -336 -2096 0
v -352 -2112 0
v -368 -2112 0
v -368 -2096 0
v -352 -2096 0
v -368 -2112 0
v -384 -2112 0
v -384 -2096 0
v -368 -2096 0
v -384 -2112 0
v -400 -2112 0
v -400 -2096 0
v -384 -2096 0
v -400 -2112 0
v -416 -2112 0
v -416 -2096 0
v -400 -2096 0
v -416 -2112 0
v -432 -2112 0
v -432 -2096 0
v -416 -2096 0
v -480 -2112 0
v -496 -2112 0
v -496 -2096 0
v -480 -2096 0
v -496 -2112 0
v -512 -2112 0
v -512 -2096 0
v -496 -2096 0
v -512 -2112 0
v -528 -2112 0
v -528 -2096 0
v -512 -2096 0
v -528 -2112 0
v -544 -2112 0
v -544 -2096 0
v -528 -2096 0
v -480 -2128 0
v -496 -2128 0
v -496 -2112 0
v -480 -2112 0
v -496 -2128 0
v -512 -2128 0
v -512 -2112 0
v -496 -2112 0

# Texture cooridinates (Count = 24)
vt 0.6470588 0.25
vt 0.7058824 0.25
vt 0.7058824 0.375
vt 0.6470588 0.375
vt 0.7647059 0.25
vt 0.7647059 0.375
vt 0.6470588 0.125
vt 0.7058824 0.125
vt 0.6470588 0.5
vt 0.7058824 0.5
vt 0.7058824 0.625
vt 0.6470588 0.625
vt 0.8235294 0.25
vt 0.8823529 0.25
vt 0.8823529 0.375
vt 0.8235294 0.375
vt 0.8235294 0.125
vt 0.8823529 0.125
vt 0.4117647 0.625
vt 0.4705882 0.625
vt 0.4705882 0.75
vt 0.4117647 0.75
vt 0.5294118 0.625
vt 0.5294118 0.75

# Normal
vn 0 0 -1

# Mesh description
g TilesEndWorld_mesh_0009

# Faces
f 1/1/1 2/2/1 3/3/1 4/4/1
f 5/2/1 6/5/1 7/6/1 8/3/1
f 9/2/1 10/5/1 11/6/1 12/3/1
f 13/2/1 14/5/1 15/6/1 16/3/1
f 17/2/1 18/5/1 19/6/1 20/3/1
f 21/7/1 22/8/1 23/2/1 24/1/1
f 25/9/1 26/10/1 27/11/1 28/12/1
f 29/13/1 30/14/1 31/15/1 32/16/1
f 33/9/1 34/10/1 35/11/1 36/12/1
f 37/9/1 38/10/1 39/11/1 40/12/1
f 41/9/1 42/10/1 43/11/1 44/12/1
f 45/17/1 46/18/1 47/14/1 48/13/1
f 49/9/1 50/10/1 51/11/1 52/12/1
f 53/9/1 54/10/1 55/11/1 56/12/1
f 57/9/1 58/10/1 59/11/1 60/12/1
f 61/9/1 62/10/1 63/11/1 64/12/1
f 65/9/1 66/10/1 67/11/1 68/12/1
f 69/9/1 70/10/1 71/11/1 72/12/1
f 73/13/1 74/14/1 75/15/1 76/16/1
f 77/9/1 78/10/1 79/11/1 80/12/1
f 81/19/1 82/20/1 83/21/1 84/22/1
f 85/20/1 86/23/1 87/24/1 88/21/1

