# Tiled2Unity generated file. Do not modify by hand.
# Wavefront file for 'TilesEndWorld_mesh_0001.obj'

# Vertices (Count = 208)
v -208 -1760 0
v -224 -1760 0
v -224 -1744 0
v -208 -1744 0
v -224 -1760 0
v -240 -1760 0
v -240 -1744 0
v -224 -1744 0
v -240 -1760 0
v -256 -1760 0
v -256 -1744 0
v -240 -1744 0
v -224 -1776 0
v -240 -1776 0
v -240 -1760 0
v -224 -1760 0
v -288 -1824 0
v -304 -1824 0
v -304 -1808 0
v -288 -1808 0
v -304 -1824 0
v -320 -1824 0
v -320 -1808 0
v -304 -1808 0
v -320 -1824 0
v -336 -1824 0
v -336 -1808 0
v -320 -1808 0
v -336 -1824 0
v -352 -1824 0
v -352 -1808 0
v -336 -1808 0
v -368 -1872 0
v -384 -1872 0
v -384 -1856 0
v -368 -1856 0
v -160 -1936 0
v -176 -1936 0
v -176 -1920 0
v -160 -1920 0
v -176 -1936 0
v -192 -1936 0
v -192 -1920 0
v -176 -1920 0
v -192 -1936 0
v -208 -1936 0
v -208 -1920 0
v -192 -1920 0
v -208 -1936 0
v -224 -1936 0
v -224 -1920 0
v -208 -1920 0
v -224 -1936 0
v -240 -1936 0
v -240 -1920 0
v -224 -1920 0
v -240 -1936 0
v -256 -1936 0
v -256 -1920 0
v -240 -1920 0
v -320 -1952 0
v -336 -1952 0
v -336 -1936 0
v -320 -1936 0
v -336 -1952 0
v -352 -1952 0
v -352 -1936 0
v -336 -1936 0
v -352 -1952 0
v -368 -1952 0
v -368 -1936 0
v -352 -1936 0
v -368 -1952 0
v -384 -1952 0
v -384 -1936 0
v -368 -1936 0
v -384 -1952 0
v -400 -1952 0
v -400 -1936 0
v -384 -1936 0
v -400 -1952 0
v -416 -1952 0
v -416 -1936 0
v -400 -1936 0
v -416 -1952 0
v -432 -1952 0
v -432 -1936 0
v -416 -1936 0
v -432 -1952 0
v -448 -1952 0
v -448 -1936 0
v -432 -1936 0
v -448 -1952 0
v -464 -1952 0
v -464 -1936 0
v -448 -1936 0
v -464 -1952 0
v -480 -1952 0
v -480 -1936 0
v -464 -1936 0
v -480 -1952 0
v -496 -1952 0
v -496 -1936 0
v -480 -1936 0
v -496 -1952 0
v -512 -1952 0
v -512 -1936 0
v -496 -1936 0
v -256 -1984 0
v -272 -1984 0
v -272 -1968 0
v -256 -1968 0
v -272 -1984 0
v -288 -1984 0
v -288 -1968 0
v -272 -1968 0
v -288 -1984 0
v -304 -1984 0
v -304 -1968 0
v -288 -1968 0
v -304 -1984 0
v -320 -1984 0
v -320 -1968 0
v -304 -1968 0
v -208 -2064 0
v -224 -2064 0
v -224 -2048 0
v -208 -2048 0
v -224 -2064 0
v -240 -2064 0
v -240 -2048 0
v -224 -2048 0
v -240 -2064 0
v -256 -2064 0
v -256 -2048 0
v -240 -2048 0
v -256 -2064 0
v -272 -2064 0
v -272 -2048 0
v -256 -2048 0
v -272 -2064 0
v -288 -2064 0
v -288 -2048 0
v -272 -2048 0
v -288 -2064 0
v -304 -2064 0
v -304 -2048 0
v -288 -2048 0
v -304 -2064 0
v -320 -2064 0
v -320 -2048 0
v -304 -2048 0
v -320 -2064 0
v -336 -2064 0
v -336 -2048 0
v -320 -2048 0
v -208 -2080 0
v -224 -2080 0
v -224 -2064 0
v -208 -2064 0
v -224 -2080 0
v -240 -2080 0
v -240 -2064 0
v -224 -2064 0
v -240 -2080 0
v -256 -2080 0
v -256 -2064 0
v -240 -2064 0
v -256 -2080 0
v -272 -2080 0
v -272 -2064 0
v -256 -2064 0
v -272 -2080 0
v -288 -2080 0
v -288 -2064 0
v -272 -2064 0
v -288 -2080 0
v -304 -2080 0
v -304 -2064 0
v -288 -2064 0
v -304 -2080 0
v -320 -2080 0
v -320 -2064 0
v -304 -2064 0
v -320 -2080 0
v -336 -2080 0
v -336 -2064 0
v -320 -2064 0
v -336 -2080 0
v -352 -2080 0
v -352 -2064 0
v -336 -2064 0
v -448 -2080 0
v -464 -2080 0
v -464 -2064 0
v -448 -2064 0
v -464 -2080 0
v -480 -2080 0
v -480 -2064 0
v -464 -2064 0
v -480 -2080 0
v -496 -2080 0
v -496 -2064 0
v -480 -2064 0
v -496 -2080 0
v -512 -2080 0
v -512 -2064 0
v -496 -2064 0

# Texture cooridinates (Count = 20)
vt 0.6333333 0.8636364
vt 0.6666667 0.8636364
vt 0.6666667 0.9090909
vt 0.6333333 0.9090909
vt 0.7 0.8636364
vt 0.7 0.9090909
vt 0.7 0.8181818
vt 0.7333333 0.8181818
vt 0.7333333 0.8636364
vt 0.7333333 0.9090909
vt 0.2333333 0.8181818
vt 0.2666667 0.8181818
vt 0.2666667 0.8636364
vt 0.2333333 0.8636364
vt 0.8 0.8181818
vt 0.8333333 0.8181818
vt 0.8333333 0.8636364
vt 0.8 0.8636364
vt 0.8666667 0.8181818
vt 0.8666667 0.8636364

# Normal
vn 0 0 -1

# Mesh description
g TilesEndWorld_mesh_0001

# Faces
f 1/1/1 2/2/1 3/3/1 4/4/1
f 5/2/1 6/5/1 7/6/1 8/3/1
f 9/2/1 10/5/1 11/6/1 12/3/1
f 13/7/1 14/8/1 15/9/1 16/5/1
f 17/2/1 18/5/1 19/6/1 20/3/1
f 21/2/1 22/5/1 23/6/1 24/3/1
f 25/2/1 26/5/1 27/6/1 28/3/1
f 29/2/1 30/5/1 31/6/1 32/3/1
f 33/7/1 34/8/1 35/9/1 36/5/1
f 37/2/1 38/5/1 39/6/1 40/3/1
f 41/2/1 42/5/1 43/6/1 44/3/1
f 45/2/1 46/5/1 47/6/1 48/3/1
f 49/2/1 50/5/1 51/6/1 52/3/1
f 53/2/1 54/5/1 55/6/1 56/3/1
f 57/5/1 58/9/1 59/10/1 60/6/1
f 61/1/1 62/2/1 63/3/1 64/4/1
f 65/2/1 66/5/1 67/6/1 68/3/1
f 69/2/1 70/5/1 71/6/1 72/3/1
f 73/2/1 74/5/1 75/6/1 76/3/1
f 77/2/1 78/5/1 79/6/1 80/3/1
f 81/2/1 82/5/1 83/6/1 84/3/1
f 85/2/1 86/5/1 87/6/1 88/3/1
f 89/2/1 90/5/1 91/6/1 92/3/1
f 93/2/1 94/5/1 95/6/1 96/3/1
f 97/2/1 98/5/1 99/6/1 100/3/1
f 101/2/1 102/5/1 103/6/1 104/3/1
f 105/5/1 106/9/1 107/10/1 108/6/1
f 109/2/1 110/5/1 111/6/1 112/3/1
f 113/2/1 114/5/1 115/6/1 116/3/1
f 117/2/1 118/5/1 119/6/1 120/3/1
f 121/2/1 122/5/1 123/6/1 124/3/1
f 125/7/1 126/8/1 127/9/1 128/5/1
f 129/11/1 130/12/1 131/13/1 132/14/1
f 133/11/1 134/12/1 135/13/1 136/14/1
f 137/11/1 138/12/1 139/13/1 140/14/1
f 141/11/1 142/12/1 143/13/1 144/14/1
f 145/11/1 146/12/1 147/13/1 148/14/1
f 149/11/1 150/12/1 151/13/1 152/14/1
f 153/11/1 154/12/1 155/13/1 156/14/1
f 157/15/1 158/16/1 159/17/1 160/18/1
f 161/15/1 162/16/1 163/17/1 164/18/1
f 165/15/1 166/16/1 167/17/1 168/18/1
f 169/15/1 170/16/1 171/17/1 172/18/1
f 173/15/1 174/16/1 175/17/1 176/18/1
f 177/15/1 178/16/1 179/17/1 180/18/1
f 181/15/1 182/16/1 183/17/1 184/18/1
f 185/15/1 186/16/1 187/17/1 188/18/1
f 189/15/1 190/16/1 191/17/1 192/18/1
f 193/15/1 194/16/1 195/17/1 196/18/1
f 197/15/1 198/16/1 199/17/1 200/18/1
f 201/15/1 202/16/1 203/17/1 204/18/1
f 205/16/1 206/19/1 207/20/1 208/17/1

